<mxfile host="app.diagrams.net" modified="2024-06-09T04:23:04.561Z" agent="Mozilla/5.0 (Windows NT 10.0; Win64; x64) AppleWebKit/537.36 (KHTML, like Gecko) Chrome/125.0.0.0 Safari/537.36 Edg/125.0.0.0" etag="0aiYtktRF_3QXXDXLj90" version="24.4.13" type="github">
  <diagram name="Page-1" id="m4BcOnyXe-cjXpLT4nwV">
    <mxGraphModel dx="1261" dy="1656" grid="1" gridSize="10" guides="1" tooltips="1" connect="1" arrows="1" fold="1" page="1" pageScale="1" pageWidth="850" pageHeight="1100" math="0" shadow="0">
      <root>
        <mxCell id="0" />
        <mxCell id="1" parent="0" />
        <mxCell id="2" value="Start" style="rounded=1;absoluteArcSize=1;arcSize=14;whiteSpace=wrap;strokeWidth=2;" parent="1" vertex="1">
          <mxGeometry x="349" width="51" height="34" as="geometry" />
        </mxCell>
        <mxCell id="3" value="Register_Parent" style="whiteSpace=wrap;strokeWidth=2;" parent="1" vertex="1">
          <mxGeometry x="311" y="103" width="128" height="34" as="geometry" />
        </mxCell>
        <mxCell id="4" value="Login_Parent" style="whiteSpace=wrap;strokeWidth=2;" parent="1" vertex="1">
          <mxGeometry x="320" y="206" width="109" height="34" as="geometry" />
        </mxCell>
        <mxCell id="5" value="Enable_Lock" style="whiteSpace=wrap;strokeWidth=2;" parent="1" vertex="1">
          <mxGeometry x="320" y="414" width="105" height="34" as="geometry" />
        </mxCell>
        <mxCell id="6" value="Website_Filtering" style="whiteSpace=wrap;strokeWidth=2;" parent="1" vertex="1">
          <mxGeometry x="70" y="533" width="141" height="34" as="geometry" />
        </mxCell>
        <mxCell id="7" value="Set_Time_Limits" style="whiteSpace=wrap;strokeWidth=2;" parent="1" vertex="1">
          <mxGeometry x="266" y="533" width="134" height="34" as="geometry" />
        </mxCell>
        <mxCell id="8" value="Block_Apps" style="whiteSpace=wrap;strokeWidth=2;" parent="1" vertex="1">
          <mxGeometry x="439" y="533" width="96" height="34" as="geometry" />
        </mxCell>
        <mxCell id="10" value="Link_Child_Device" style="whiteSpace=wrap;strokeWidth=2;" parent="1" vertex="1">
          <mxGeometry x="713" y="275" width="146" height="34" as="geometry" />
        </mxCell>
        <mxCell id="11" value="Enter_PIN_ID" style="whiteSpace=wrap;strokeWidth=2;" parent="1" vertex="1">
          <mxGeometry x="733" y="340" width="108" height="34" as="geometry" />
        </mxCell>
        <mxCell id="12" value="Link_Successful" style="whiteSpace=wrap;strokeWidth=2;" parent="1" vertex="1">
          <mxGeometry x="724" y="414" width="126" height="34" as="geometry" />
        </mxCell>
        <mxCell id="16" value="Create Account" style="curved=1;startArrow=none;endArrow=block;exitX=0.5044041053921569;exitY=1;entryX=0.4978485107421875;entryY=0;" parent="1" source="2" target="3" edge="1">
          <mxGeometry relative="1" as="geometry">
            <Array as="points" />
          </mxGeometry>
        </mxCell>
        <mxCell id="17" value="Login" style="curved=1;startArrow=none;endArrow=block;exitX=0.4978485107421875;exitY=1;entryX=0.5020606364678899;entryY=0;" parent="1" source="3" target="4" edge="1">
          <mxGeometry relative="1" as="geometry">
            <Array as="points" />
          </mxGeometry>
        </mxCell>
        <mxCell id="18" value="Enable Parental Lock" style="curved=1;startArrow=none;endArrow=block;exitX=0.5020606364678899;exitY=1;entryX=0.5021391369047619;entryY=0;" parent="1" source="4" target="5" edge="1">
          <mxGeometry x="-0.0803" y="-1" relative="1" as="geometry">
            <Array as="points" />
            <mxPoint as="offset" />
          </mxGeometry>
        </mxCell>
        <mxCell id="25" value="Link Successful" style="curved=1;startArrow=none;endArrow=block;exitX=0.5041775173611112;exitY=1;entryX=0.5035807291666666;entryY=0;" parent="1" source="11" target="12" edge="1">
          <mxGeometry relative="1" as="geometry">
            <Array as="points" />
          </mxGeometry>
        </mxCell>
        <mxCell id="yAkKS4AbIRkZIPxCm0X9-32" value="" style="endArrow=classic;html=1;rounded=0;exitX=0.5;exitY=1;exitDx=0;exitDy=0;entryX=0.5;entryY=0;entryDx=0;entryDy=0;" edge="1" parent="1" source="10" target="11">
          <mxGeometry width="50" height="50" relative="1" as="geometry">
            <mxPoint x="790" y="600" as="sourcePoint" />
            <mxPoint x="840" y="550" as="targetPoint" />
          </mxGeometry>
        </mxCell>
        <mxCell id="yAkKS4AbIRkZIPxCm0X9-34" value="" style="curved=1;startArrow=none;endArrow=block;entryX=0;entryY=0.5;exitX=1;exitY=0.5;exitDx=0;exitDy=0;entryDx=0;entryDy=0;" edge="1" parent="1" source="4" target="9">
          <mxGeometry x="0.457" y="160" relative="1" as="geometry">
            <Array as="points" />
            <mxPoint x="430" y="326" as="sourcePoint" />
            <mxPoint x="796" y="370" as="targetPoint" />
            <mxPoint as="offset" />
          </mxGeometry>
        </mxCell>
        <mxCell id="9" value="Generate_PIN_ID" style="whiteSpace=wrap;strokeWidth=2;" parent="1" vertex="1">
          <mxGeometry x="530" y="206" width="137" height="34" as="geometry" />
        </mxCell>
        <mxCell id="yAkKS4AbIRkZIPxCm0X9-35" value="Usage" style="whiteSpace=wrap;strokeWidth=2;" vertex="1" parent="1">
          <mxGeometry x="580" y="533" width="100" height="34" as="geometry" />
        </mxCell>
        <mxCell id="yAkKS4AbIRkZIPxCm0X9-36" value="" style="endArrow=classic;html=1;rounded=0;entryX=0.448;entryY=-0.022;entryDx=0;entryDy=0;entryPerimeter=0;exitX=0;exitY=0.5;exitDx=0;exitDy=0;" edge="1" parent="1" source="5" target="6">
          <mxGeometry width="50" height="50" relative="1" as="geometry">
            <mxPoint x="540" y="420" as="sourcePoint" />
            <mxPoint x="590" y="370" as="targetPoint" />
            <Array as="points">
              <mxPoint x="133" y="431" />
            </Array>
          </mxGeometry>
        </mxCell>
        <mxCell id="yAkKS4AbIRkZIPxCm0X9-46" value="Set URL filtering" style="edgeLabel;html=1;align=center;verticalAlign=middle;resizable=0;points=[];" vertex="1" connectable="0" parent="yAkKS4AbIRkZIPxCm0X9-36">
          <mxGeometry x="0.7142" y="2" relative="1" as="geometry">
            <mxPoint y="-31" as="offset" />
          </mxGeometry>
        </mxCell>
        <mxCell id="yAkKS4AbIRkZIPxCm0X9-37" value="" style="endArrow=classic;html=1;rounded=0;exitX=0.25;exitY=1;exitDx=0;exitDy=0;" edge="1" parent="1" source="5">
          <mxGeometry width="50" height="50" relative="1" as="geometry">
            <mxPoint x="540" y="420" as="sourcePoint" />
            <mxPoint x="290" y="530" as="targetPoint" />
            <Array as="points">
              <mxPoint x="346" y="480" />
              <mxPoint x="290" y="480" />
            </Array>
          </mxGeometry>
        </mxCell>
        <mxCell id="yAkKS4AbIRkZIPxCm0X9-47" value="Set time limit" style="edgeLabel;html=1;align=center;verticalAlign=middle;resizable=0;points=[];" vertex="1" connectable="0" parent="yAkKS4AbIRkZIPxCm0X9-37">
          <mxGeometry x="0.0085" y="3" relative="1" as="geometry">
            <mxPoint x="-19" y="-13" as="offset" />
          </mxGeometry>
        </mxCell>
        <mxCell id="yAkKS4AbIRkZIPxCm0X9-38" value="" style="endArrow=classic;html=1;rounded=0;exitX=0.75;exitY=1;exitDx=0;exitDy=0;entryX=0.429;entryY=0.012;entryDx=0;entryDy=0;entryPerimeter=0;" edge="1" parent="1" source="5" target="8">
          <mxGeometry width="50" height="50" relative="1" as="geometry">
            <mxPoint x="540" y="420" as="sourcePoint" />
            <mxPoint x="590" y="370" as="targetPoint" />
            <Array as="points">
              <mxPoint x="400" y="480" />
              <mxPoint x="480" y="480" />
            </Array>
          </mxGeometry>
        </mxCell>
        <mxCell id="yAkKS4AbIRkZIPxCm0X9-48" value="Set apps restriction" style="edgeLabel;html=1;align=center;verticalAlign=middle;resizable=0;points=[];" vertex="1" connectable="0" parent="yAkKS4AbIRkZIPxCm0X9-38">
          <mxGeometry x="-0.0702" y="-2" relative="1" as="geometry">
            <mxPoint x="26" y="8" as="offset" />
          </mxGeometry>
        </mxCell>
        <mxCell id="yAkKS4AbIRkZIPxCm0X9-40" value="" style="endArrow=classic;html=1;rounded=0;exitX=1;exitY=0.75;exitDx=0;exitDy=0;entryX=0.5;entryY=0;entryDx=0;entryDy=0;" edge="1" parent="1" source="5" target="yAkKS4AbIRkZIPxCm0X9-35">
          <mxGeometry width="50" height="50" relative="1" as="geometry">
            <mxPoint x="580" y="437" as="sourcePoint" />
            <mxPoint x="654" y="533" as="targetPoint" />
            <Array as="points">
              <mxPoint x="630" y="440" />
            </Array>
          </mxGeometry>
        </mxCell>
        <mxCell id="yAkKS4AbIRkZIPxCm0X9-49" value="See device usage" style="edgeLabel;html=1;align=center;verticalAlign=middle;resizable=0;points=[];" vertex="1" connectable="0" parent="yAkKS4AbIRkZIPxCm0X9-40">
          <mxGeometry x="-0.058" y="-4" relative="1" as="geometry">
            <mxPoint x="-27" y="-4" as="offset" />
          </mxGeometry>
        </mxCell>
        <mxCell id="yAkKS4AbIRkZIPxCm0X9-41" value="" style="endArrow=classic;html=1;rounded=0;" edge="1" parent="1">
          <mxGeometry width="50" height="50" relative="1" as="geometry">
            <mxPoint x="667" y="225" as="sourcePoint" />
            <mxPoint x="787" y="275" as="targetPoint" />
            <Array as="points">
              <mxPoint x="787" y="225" />
            </Array>
          </mxGeometry>
        </mxCell>
        <mxCell id="yAkKS4AbIRkZIPxCm0X9-42" value="" style="endArrow=classic;html=1;rounded=0;exitX=0;exitY=0.25;exitDx=0;exitDy=0;" edge="1" parent="1" source="12">
          <mxGeometry width="50" height="50" relative="1" as="geometry">
            <mxPoint x="570" y="480" as="sourcePoint" />
            <mxPoint x="370" y="290" as="targetPoint" />
            <Array as="points">
              <mxPoint x="610" y="423" />
              <mxPoint x="610" y="290" />
            </Array>
          </mxGeometry>
        </mxCell>
      </root>
    </mxGraphModel>
  </diagram>
</mxfile>
